<svg width="97" height="38" viewBox="0 0 97 38" fill="none" xmlns="http://www.w3.org/2000/svg">
<path fill-rule="evenodd" clip-rule="evenodd" d="M74.7899 0.669006H96.8628V9.1159H83.5391V14.5634H94.4571V23.047H83.5391V28.693H96.8628V37.3457H74.7899V0.669006Z" fill="black"/>
<path fill-rule="evenodd" clip-rule="evenodd" d="M62.3323 14.7692C62.1103 12.38 61.2369 10.8582 60.5855 9.99071C59.49 9.33643 58.4019 8.90269 57.521 8.90269C55.7742 8.90269 54.4566 9.99071 53.5832 11.7257C52.7097 13.8944 52.4877 16.2836 52.4877 19.3271C52.4877 25.8406 54.2345 29.3179 57.521 29.3179C60.1488 29.3179 61.8956 26.9286 62.3323 22.8044H70.8595C70.6374 27.3624 69.3273 31.2734 67.1437 33.8758C64.9601 36.6988 61.6736 38 57.9578 38C55.1154 38 52.4877 37.1325 50.3041 35.8313C47.8984 34.3095 46.3662 32.354 45.2707 29.3179C44.1752 26.7154 43.5238 23.0176 43.5238 19.3271C43.5238 15.2029 44.1826 11.5125 45.2707 8.46895C46.8029 5.42542 48.5498 3.25672 50.5187 1.9555C52.7023 0.654285 54.8933 0 57.0769 0C61.8882 0 65.3894 1.73496 67.3583 4.34475C69.3273 7.16773 70.4228 10.645 70.6374 14.7692H62.3249H62.3323Z" fill="black"/>
<path d="M39.9857 0.669006H31.0292V37.3384H39.9857V0.669006Z" fill="black"/>
<path fill-rule="evenodd" clip-rule="evenodd" d="M0 0.669006H8.0978L17.4984 20.8563V12.8137V0.669006H26.0033V37.3457H17.4984L8.29766 17.4011V26.0538V37.3457H0V0.669006Z" fill="black"/>
<path d="M78.9499 14.7545H70.8595V22.7897H78.9499V14.7545Z" fill="#23C9FF"/>
<path d="M48.1205 14.7545H39.9857V22.7897H48.1205V14.7545Z" fill="#23C9FF"/>
<path d="M31.0292 14.7545H22.9388V22.7897H31.0292V14.7545Z" fill="#23C9FF"/>
</svg>